<svg xmlns="http://www.w3.org/2000/svg" viewBox="0 0 512 512">
  <defs>
    <linearGradient id="bg" x1="70" y1="40" x2="445" y2="465" gradientUnits="userSpaceOnUse">
      <stop offset="0" stop-color="#7c3aed"/>
      <stop offset="0.52" stop-color="#4f46e5"/>
      <stop offset="1" stop-color="#10b981"/>
    </linearGradient>
    <radialGradient id="glow1" cx="22%" cy="16%" r="62%">
      <stop offset="0" stop-color="#c4b5fd" stop-opacity="0.75"/>
      <stop offset="1" stop-color="#c4b5fd" stop-opacity="0"/>
    </radialGradient>
    <radialGradient id="glow2" cx="83%" cy="78%" r="58%">
      <stop offset="0" stop-color="#6ee7b7" stop-opacity="0.55"/>
      <stop offset="1" stop-color="#6ee7b7" stop-opacity="0"/>
    </radialGradient>
    <filter id="shadow" x="-20%" y="-20%" width="140%" height="140%">
      <feDropShadow dx="0" dy="18" stdDeviation="18" flood-color="#020617" flood-opacity="0.38"/>
    </filter>
  </defs>
  <rect width="512" height="512" rx="116" fill="#0f172a"/>
  <rect width="512" height="512" rx="116" fill="url(#bg)" opacity="0.88"/>
  <rect width="512" height="512" rx="116" fill="url(#glow1)"/>
  <rect width="512" height="512" rx="116" fill="url(#glow2)"/>

  <g filter="url(#shadow)">
    <rect x="88" y="96" width="336" height="320" rx="56" fill="#111827" opacity="0.88"/>
    <rect x="106" y="114" width="300" height="284" rx="42" fill="#0b1220" opacity="0.92"/>
  </g>

  <g fill="none" stroke-linecap="round" stroke-linejoin="round">
    <path d="M184 214c-23-2-40-20-40-44 0-27 22-49 50-49 13 0 25 5 34 13 9-20 29-33 53-33 33 0 59 26 59 58 0 3 0 6-1 9 22 7 38 27 38 51 0 30-25 55-56 55h-14" stroke="#f8fafc" stroke-opacity="0.94" stroke-width="22"/>
    <path d="M202 168v113c0 36 29 65 65 65 31 0 58-22 64-52" stroke="#f8fafc" stroke-opacity="0.88" stroke-width="22"/>
    <path d="M243 147v172M291 163v134M177 230h76M251 214h78" stroke="#a7f3d0" stroke-opacity="0.9" stroke-width="13"/>
  </g>

  <g>
    <circle cx="177" cy="230" r="14" fill="#22c55e"/>
    <circle cx="243" cy="147" r="14" fill="#8b5cf6"/>
    <circle cx="291" cy="163" r="14" fill="#22c55e"/>
    <circle cx="329" cy="214" r="14" fill="#8b5cf6"/>
    <circle cx="251" cy="319" r="14" fill="#22c55e"/>
  </g>

  <g filter="url(#shadow)">
    <circle cx="352" cy="344" r="70" fill="#22c55e"/>
    <path d="M315 344l24 24 55-62" fill="none" stroke="#f8fafc" stroke-width="22" stroke-linecap="round" stroke-linejoin="round"/>
  </g>

  <path d="M136 413c42 28 98 44 160 37" fill="none" stroke="#f8fafc" stroke-opacity="0.28" stroke-width="14" stroke-linecap="round"/>
</svg>
